<svg xmlns="http://www.w3.org/2000/svg" viewBox="0 0 40 40" width="40" height="40" fill="none" role="img" aria-label="VertiAI Logo">
  <title>VertiAI</title>
  <defs>
    <linearGradient id="sky" x1="0" y1="0" x2="0" y2="1">
      <stop offset="0%"   stop-color="#1e3a5f"/>
      <stop offset="50%"  stop-color="#2563eb"/>
      <stop offset="100%" stop-color="#60a5fa"/>
    </linearGradient>
    <clipPath id="circle-clip"><circle cx="20" cy="20" r="18"/></clipPath>
  </defs>
  <circle cx="20" cy="20" r="18" fill="url(#sky)"/>
  <line x1="5"  y1="8"  x2="35" y2="8"  stroke="rgba(255,255,255,0.16)" stroke-width="0.7"/>
  <line x1="5"  y1="14" x2="35" y2="14" stroke="rgba(255,255,255,0.16)" stroke-width="0.7"/>
  <line x1="5"  y1="20" x2="35" y2="20" stroke="rgba(255,255,255,0.16)" stroke-width="0.7"/>
  <line x1="5"  y1="26" x2="35" y2="26" stroke="rgba(255,255,255,0.16)" stroke-width="0.7"/>
  <line x1="5"  y1="32" x2="35" y2="32" stroke="rgba(255,255,255,0.16)" stroke-width="0.7"/>
  <polyline points="15,4 16,9 14,15 17,20 21,26 23,33"
    stroke="#f87171" stroke-width="1.8" stroke-linecap="round" stroke-linejoin="round"
    fill="none" clip-path="url(#circle-clip)"/>
  <polyline points="8,5 8,10 7,16 9,22 11,29"
    stroke="#4ade80" stroke-width="1.5" stroke-linecap="round" stroke-linejoin="round"
    fill="none" clip-path="url(#circle-clip)"/>
  <line x1="20" y1="36" x2="20" y2="5" stroke="white" stroke-width="1.5" stroke-linecap="round" opacity="0.8"/>
  <polygon points="20,3.5 17.5,8 22.5,8" fill="white" opacity="0.9"/>
  <circle cx="29" cy="30" r="7.5" fill="#1e3a5f" stroke="white" stroke-width="1"/>
  <text x="29" y="33.5" text-anchor="middle"
        font-family="Segoe UI, system-ui, sans-serif"
        font-size="6.5" font-weight="900" fill="white">AI</text>
  <circle cx="20" cy="20" r="18" stroke="rgba(255,255,255,0.2)" stroke-width="0.8" fill="none"/>
</svg>